<svg xmlns="http://www.w3.org/2000/svg" xmlns:xlink="http://www.w3.org/1999/xlink" aria-hidden="true" role="img" class="iconify iconify--logos" width="35.93" height="32" preserveAspectRatio="xMidYMid meet" viewBox="0 0 256 228"><path fill="#00D8FF" d="M210.483 73.824a171.49 171.49 0 0 0-8.24-2.597c.465-1.9.893-3.777 1.273-5.621c6.238-30.281 2.16-54.676-11.769-62.708c-13.355-7.7-35.196.329-57.254 19.526a171.23 171.23 0 0 0-6.375 5.848a155.866 155.866 0 0 0-4.241-3.917C100.759 3.829 77.587-4.822 63.673 3.233C50.33 10.957 46.379 33.89 51.995 62.588a170.974 170.974 0 0 0 1.892 8.48c-3.28.932-6.445 1.924-9.474 2.98C17.309 83.498 0 98.307 0 113.668c0 15.865 18.582 31.778 46.812 41.427a145.52 145.52 0 0 0 6.921 2.165a167.467 167.467 0 0 0-2.01 9.138c-5.354 28.2-1.173 50.591 12.134 58.266c13.744 7.926 36.812-.22 59.273-19.855a145.567 145.567 0 0 0 5.342-4.923a168.064 168.064 0 0 0 6.92 6.314c21.758 18.722 43.246 26.282 56.54 18.586c13.731-7.949 18.194-32.003 12.4-61.268a145.016 145.016 0 0 0-1.535-6.842c1.62-.48 3.21-.974 4.76-1.488c29.348-9.723 48.443-25.443 48.443-41.52c0-15.417-17.868-30.326-45.517-39.844Zm-6.365 70.984c-1.596.53-3.232 1.022-4.902 1.486c-3.48-11.01-8.775-22.89-15.654-34.926c6.562-12.406 11.653-24.533 14.939-35.541c6.728 1.993 13.138 4.332 18.924 6.977c19.66 9.26 29.744 20.362 29.744 28.855c0 9.923-12.727 22.979-42.95 33.149Zm-10.923 6.201c2.5 9.016 3.81 17.36 3.81 24.313c0 22.755-11.19 37.114-24.845 37.114c-10.912 0-24.5-6.636-38.252-19.659c2.875-3.275 5.76-6.777 8.609-10.519c6.733-8.946 12.944-18.844 18.38-29.43c12.328 1.117 24.018 2.915 34.298 5.181Zm-101.07-2.861c-5.414 10.554-11.587 20.35-18.226 29.143c-3.007 3.972-6.058 7.763-9.117 11.32a107.94 107.94 0 0 1-8.794-5.53c-14.413-10.058-22.158-23.308-22.158-34.907c0-10.22 5.843-20.982 17.35-30.625c3.457-2.876 7.364-5.637 11.676-8.271c3.96 12.3 9.43 25.28 16.347 38.1a196.86 196.86 0 0 0 12.922.77Zm-3.3-88.56c9.17-11.56 18.53-21.256 27.57-28.85c10.93-9.084 21.47-14.053 30.58-14.053c8.638 0 16.22 4.422 22.495 13.13c6.8 9.465 10.38 23.524 10.38 41.044c0 9.02-1.018 18.65-2.966 28.65a196.856 196.856 0 0 0-18.23 1.697c-5.523-11.093-11.766-21.685-18.583-31.448c-6.898-9.883-14.038-19.04-21.247-27.094a184.37 184.37 0 0 0-9.999 16.974Z"/></svg>
